<mxfile host="app.diagrams.net" modified="2021-10-31T20:46:33.757Z" agent="5.0 (Windows NT 10.0; Win64; x64) AppleWebKit/537.36 (KHTML, like Gecko) Chrome/95.0.4638.69 Safari/537.36" etag="TCm6trexMBBm6MtCGbEt" version="15.6.3" type="github">
  <diagram id="oRoor3QD__L9eZZ4H3Ug" name="Page-1">
    <mxGraphModel dx="1422" dy="1871" grid="1" gridSize="10" guides="1" tooltips="1" connect="1" arrows="1" fold="1" page="1" pageScale="1" pageWidth="827" pageHeight="1169" math="0" shadow="0">
      <root>
        <mxCell id="0" />
        <mxCell id="1" parent="0" />
        <mxCell id="viv2s1QD0Q5ynQNhOB1b-4" value="" style="edgeStyle=orthogonalEdgeStyle;rounded=0;orthogonalLoop=1;jettySize=auto;html=1;fontSize=18;" edge="1" parent="1" source="viv2s1QD0Q5ynQNhOB1b-2" target="viv2s1QD0Q5ynQNhOB1b-3">
          <mxGeometry relative="1" as="geometry" />
        </mxCell>
        <mxCell id="viv2s1QD0Q5ynQNhOB1b-8" value="" style="edgeStyle=orthogonalEdgeStyle;rounded=0;orthogonalLoop=1;jettySize=auto;html=1;fontSize=14;" edge="1" parent="1" source="viv2s1QD0Q5ynQNhOB1b-2" target="viv2s1QD0Q5ynQNhOB1b-7">
          <mxGeometry relative="1" as="geometry" />
        </mxCell>
        <mxCell id="viv2s1QD0Q5ynQNhOB1b-2" value="&lt;b&gt;&lt;i&gt;&lt;font style=&quot;font-size: 18px&quot;&gt;Azure Functions&lt;/font&gt;&lt;/i&gt;&lt;/b&gt;" style="rounded=1;whiteSpace=wrap;html=1;fillColor=#dae8fc;strokeColor=#6c8ebf;" vertex="1" parent="1">
          <mxGeometry x="354" y="280" width="120" height="60" as="geometry" />
        </mxCell>
        <mxCell id="viv2s1QD0Q5ynQNhOB1b-6" value="" style="edgeStyle=orthogonalEdgeStyle;rounded=0;orthogonalLoop=1;jettySize=auto;html=1;fontSize=14;" edge="1" parent="1" source="viv2s1QD0Q5ynQNhOB1b-3" target="viv2s1QD0Q5ynQNhOB1b-5">
          <mxGeometry relative="1" as="geometry">
            <Array as="points">
              <mxPoint x="414" y="30" />
              <mxPoint x="180" y="30" />
            </Array>
          </mxGeometry>
        </mxCell>
        <mxCell id="viv2s1QD0Q5ynQNhOB1b-3" value="&lt;font style=&quot;font-size: 14px&quot;&gt;&lt;b&gt;&lt;i&gt;Serverless Logic&lt;/i&gt;&lt;/b&gt;&lt;/font&gt;" style="whiteSpace=wrap;html=1;rounded=1;strokeColor=#6c8ebf;fillColor=#dae8fc;" vertex="1" parent="1">
          <mxGeometry x="354" y="140" width="120" height="60" as="geometry" />
        </mxCell>
        <mxCell id="viv2s1QD0Q5ynQNhOB1b-5" value="&lt;b&gt;&lt;i&gt;Decide Serverless Computing&lt;/i&gt;&lt;/b&gt;" style="whiteSpace=wrap;html=1;rounded=1;strokeColor=#6c8ebf;fillColor=#dae8fc;" vertex="1" parent="1">
          <mxGeometry x="120" y="-110" width="120" height="60" as="geometry" />
        </mxCell>
        <mxCell id="viv2s1QD0Q5ynQNhOB1b-7" value="Es una aplicación/ plataforma serverless. Te habilita a hostear lógica de negocio que puede ser ejecutada sin proveer una infraestructura. Functions provee escalabilidad intrínseca y te cobran solo por los recurso utilizados. Puedes escribir el codigo de la funcion en el lenguaje que prefieras, incluyendo C#, F#, JavaScript,&amp;nbsp;" style="ellipse;whiteSpace=wrap;html=1;rounded=1;strokeColor=#6c8ebf;fillColor=#dae8fc;" vertex="1" parent="1">
          <mxGeometry x="554" y="280" width="120" height="60" as="geometry" />
        </mxCell>
      </root>
    </mxGraphModel>
  </diagram>
</mxfile>
